<svg width="18" height="18" viewBox="0 0 18 18" fill="none" xmlns="http://www.w3.org/2000/svg">
<g id="019-list" clip-path="url(#clip0_8114_2050)">
<path id="Vector" d="M3 5.25H15C15.5967 5.25 16.169 5.01295 16.591 4.59099C17.0129 4.16903 17.25 3.59674 17.25 3C17.25 2.40326 17.0129 1.83097 16.591 1.40901C16.169 0.987053 15.5967 0.75 15 0.75H3C2.40326 0.75 1.83097 0.987053 1.40901 1.40901C0.987053 1.83097 0.75 2.40326 0.75 3C0.75 3.59674 0.987053 4.16903 1.40901 4.59099C1.83097 5.01295 2.40326 5.25 3 5.25Z" fill="#353638"/>
<path id="Vector_2" d="M15 6.75H3C2.40326 6.75 1.83097 6.98705 1.40901 7.40901C0.987053 7.83097 0.75 8.40326 0.75 9C0.75 9.59674 0.987053 10.169 1.40901 10.591C1.83097 11.0129 2.40326 11.25 3 11.25H15C15.5967 11.25 16.169 11.0129 16.591 10.591C17.0129 10.169 17.25 9.59674 17.25 9C17.25 8.40326 17.0129 7.83097 16.591 7.40901C16.169 6.98705 15.5967 6.75 15 6.75Z" fill="#353638"/>
<path id="Vector_3" d="M15 12.75H3C2.40326 12.75 1.83097 12.9871 1.40901 13.409C0.987053 13.831 0.75 14.4033 0.75 15C0.75 15.5967 0.987053 16.169 1.40901 16.591C1.83097 17.0129 2.40326 17.25 3 17.25H15C15.5967 17.25 16.169 17.0129 16.591 16.591C17.0129 16.169 17.25 15.5967 17.25 15C17.25 14.4033 17.0129 13.831 16.591 13.409C16.169 12.9871 15.5967 12.75 15 12.75Z" fill="#353638"/>
</g>
<defs>
<clipPath id="clip0_8114_2050">
<rect width="18" height="18" fill="white"/>
</clipPath>
</defs>
</svg>
