<svg width="90" height="91" viewBox="0 0 90 91" fill="none" xmlns="http://www.w3.org/2000/svg">
<g id="profile pic">
<circle id="Ellipse 12" cx="45" cy="45.5" r="45" fill="white"/>
<g id="account_circle">
<mask id="mask0_8573_4649" style="mask-type:alpha" maskUnits="userSpaceOnUse" x="20" y="21" width="50" height="49">
<rect id="Bounding box" x="20.6484" y="21.1483" width="48.7032" height="48.7032" fill="#D9D9D9"/>
</mask>
<g mask="url(#mask0_8573_4649)">
<path id="account_circle_2" d="M31.9111 56.9149C34.0418 55.4267 36.1557 54.2852 38.2526 53.4904C40.3496 52.6956 42.5987 52.2982 45 52.2982C47.4014 52.2982 49.659 52.6956 51.7728 53.4904C53.8867 54.2852 56.009 55.4267 58.1398 56.9149C59.6279 55.0885 60.6849 53.2452 61.3106 51.385C61.9363 49.5248 62.2491 47.5632 62.2491 45.5C62.2491 40.5959 60.6003 36.495 57.3027 33.1974C54.0051 29.8998 49.9042 28.251 45 28.251C40.0959 28.251 35.995 29.8998 32.6974 33.1974C29.3998 36.495 27.751 40.5959 27.751 45.5C27.751 47.5632 28.0723 49.5248 28.7149 51.385C29.3575 53.2452 30.4229 55.0885 31.9111 56.9149ZM44.9906 47.022C43.0352 47.022 41.3896 46.3509 40.0536 45.0087C38.7177 43.6664 38.0497 42.0176 38.0497 40.0622C38.0497 38.1069 38.7208 36.4612 40.0631 35.1252C41.4053 33.7893 43.0541 33.1213 45.0095 33.1213C46.9649 33.1213 48.6105 33.7924 49.9465 35.1347C51.2824 36.4769 51.9504 38.1257 51.9504 40.0811C51.9504 42.0365 51.2793 43.6821 49.937 45.0181C48.5948 46.354 46.946 47.022 44.9906 47.022ZM45.0238 65.7931C42.2346 65.7931 39.6055 65.2604 37.1365 64.195C34.6675 63.1296 32.5114 61.6753 30.6681 59.832C28.8248 57.9887 27.3705 55.8365 26.3051 53.3755C25.2397 50.9144 24.707 48.2848 24.707 45.4866C24.707 42.6884 25.2397 40.0632 26.3051 37.6111C27.3705 35.1591 28.8248 33.0114 30.6681 31.1681C32.5114 29.3248 34.6636 27.8705 37.1246 26.8051C39.5857 25.7397 42.2153 25.207 45.0135 25.207C47.8117 25.207 50.4369 25.7397 52.889 26.8051C55.341 27.8705 57.4887 29.3248 59.332 31.1681C61.1753 33.0114 62.6296 35.1596 63.695 37.6128C64.7604 40.0659 65.2931 42.6871 65.2931 45.4763C65.2931 48.2655 64.7604 50.8946 63.695 53.3636C62.6296 55.8326 61.1753 57.9887 59.332 59.832C57.4887 61.6753 55.3405 63.1296 52.8873 64.195C50.4342 65.2604 47.813 65.7931 45.0238 65.7931ZM45 62.7491C46.8602 62.7491 48.6782 62.4785 50.4538 61.9374C52.2294 61.3962 53.9797 60.4492 55.7046 59.0964C53.9797 57.8788 52.221 56.9487 50.4284 56.3061C48.6359 55.6635 46.8264 55.3422 45 55.3422C43.1737 55.3422 41.3642 55.6635 39.5717 56.3061C37.7791 56.9487 36.0204 57.8788 34.2955 59.0964C36.0204 60.4492 37.7707 61.3962 39.5463 61.9374C41.3219 62.4785 43.1399 62.7491 45 62.7491ZM45 43.9781C46.15 43.9781 47.0885 43.6145 47.8157 42.8873C48.5429 42.1602 48.9065 41.2216 48.9065 40.0717C48.9065 38.9217 48.5429 37.9832 47.8157 37.256C47.0885 36.5288 46.15 36.1653 45 36.1653C43.8501 36.1653 42.9116 36.5288 42.1844 37.256C41.4572 37.9832 41.0936 38.9217 41.0936 40.0717C41.0936 41.2216 41.4572 42.1602 42.1844 42.8873C42.9116 43.6145 43.8501 43.9781 45 43.9781Z" fill="#353638"/>
</g>
</g>
</g>
</svg>
