<svg width="63" height="63" viewBox="0 0 63 63" fill="none" xmlns="http://www.w3.org/2000/svg">
<g id="sticky_note_2">
<mask id="mask0_8558_13467" style="mask-type:alpha" maskUnits="userSpaceOnUse" x="0" y="0" width="63" height="63">
<rect id="Bounding box" width="63" height="63" fill="#D9D9D9"/>
</mask>
<g mask="url(#mask0_8558_13467)">
<path id="sticky_note_2_2" d="M11.8125 55.125C10.7297 55.125 9.80273 54.7395 9.03164 53.9684C8.26055 53.1973 7.875 52.2703 7.875 51.1875V11.8125C7.875 10.7297 8.26055 9.80273 9.03164 9.03164C9.80273 8.26055 10.7297 7.875 11.8125 7.875H51.1875C52.2703 7.875 53.1973 8.26055 53.9684 9.03164C54.7395 9.80273 55.125 10.7297 55.125 11.8125V39.375L39.375 55.125H11.8125ZM38.0625 51.1875L51.1875 38.0625H38.0625V51.1875ZM19.6875 35.4375H30.8438V31.5H19.6875V35.4375ZM19.6875 24.9375H43.3125V21H19.6875V24.9375Z" fill="#F7E2B3"/>
</g>
</g>
</svg>
